<svg width="135" height="31" viewBox="0 0 135 31" xmlns="http://www.w3.org/2000/svg"><title>Logo</title><path d="M0 30.114h29.146V.72H0v29.394zm12.508-17.741c-3.184 2.378-3.073 0-3.073 0h3.073zm13.016 14.69H13.8v-1.964l.837-1.836-.254-.64.296-.654-.578-1.584 1.818-1.13-2.549-6.949.852-1.45-2.359-7.186h13.66v23.393zm9.68-25.341h2.798v5.172h5.615V1.722h2.799V14.12h-2.799V9.231h-5.615v4.889h-2.798V1.722zm13.94 0h2.798V14.12h-2.799V1.722zm14.186.788a5.718 5.718 0 0 1 2.312 2.196c.549.939.824 2.01.824 3.215 0 1.204-.28 2.276-.842 3.215a5.811 5.811 0 0 1-2.347 2.196c-1.003.525-2.149.788-3.436.788h-5.154V1.722h5.26c1.264 0 2.392.262 3.383.788zm-1.46 8.767a3.379 3.379 0 0 0 1.283-1.355c.307-.578.46-1.24.46-1.983 0-.744-.161-1.412-.486-2.002a3.497 3.497 0 0 0-1.329-1.373c-.56-.324-1.195-.487-1.904-.487h-2.408v7.687h2.532c.685 0 1.302-.162 1.851-.487zM76.95 2.51a5.718 5.718 0 0 1 2.311 2.196c.55.939.824 2.01.824 3.215 0 1.204-.28 2.276-.841 3.215a5.811 5.811 0 0 1-2.347 2.196c-1.004.525-2.15.788-3.436.788h-5.154V1.722h5.26c1.263 0 2.391.262 3.383.788zm-1.461 8.767a3.374 3.374 0 0 0 1.284-1.355c.307-.578.46-1.24.46-1.983 0-.744-.162-1.412-.487-2.002a3.497 3.497 0 0 0-1.328-1.373c-.561-.324-1.196-.487-1.904-.487h-2.409v7.687h2.533c.685 0 1.302-.162 1.85-.487zm6.438-9.555h9.44v2.32h-6.641v2.692h5.969v2.32h-5.97V11.8h6.837v2.32h-9.635V1.722zm20.404 0h2.657V14.12h-2.55l-6.005-7.97v7.97H93.76V1.722h2.55l6.022 8.005V1.722zm-67.128 15.12h8.909l-.018 2.32h-6.093v3.046H43.6v2.338h-5.597v4.694h-2.798V16.842zm19.696.637a6.227 6.227 0 0 1 2.4 2.294c.584.974.876 2.057.876 3.25s-.292 2.279-.876 3.26a6.271 6.271 0 0 1-2.4 2.31c-1.016.561-2.144.842-3.383.842-1.24 0-2.368-.28-3.383-.841a6.292 6.292 0 0 1-2.4-2.303c-.585-.974-.877-2.063-.877-3.268 0-1.193.292-2.276.877-3.25a6.244 6.244 0 0 1 2.39-2.294c1.01-.555 2.14-.832 3.393-.832 1.24 0 2.367.277 3.383.832zm-5.26 2.135a3.816 3.816 0 0 0-1.4 1.425 3.943 3.943 0 0 0-.514 1.984c0 .732.174 1.4.523 2.002.348.602.814 1.08 1.399 1.434a3.61 3.61 0 0 0 1.904.532c.685 0 1.314-.175 1.886-.523a3.795 3.795 0 0 0 1.364-1.435 4.082 4.082 0 0 0 .505-2.01c0-.72-.168-1.381-.505-1.984a3.814 3.814 0 0 0-1.364-1.425 3.561 3.561 0 0 0-1.886-.523 3.7 3.7 0 0 0-1.913.523zm13.717 6.606c.502.514 1.172.77 2.01.77.815 0 1.465-.253 1.949-.761s.726-1.21.726-2.108v-7.28h2.798v7.28c0 1.087-.221 2.028-.664 2.825a4.514 4.514 0 0 1-1.904 1.842c-.826.431-1.8.647-2.922.647s-2.102-.216-2.94-.647a4.546 4.546 0 0 1-1.931-1.842c-.449-.797-.673-1.738-.673-2.825v-7.28h2.798v7.28c0 .886.251 1.585.753 2.1zm18.571-9.378h2.657V29.24h-2.55l-6.005-7.97v7.97h-2.675V16.842h2.551l6.022 8.005v-8.005zm14.028.788a5.718 5.718 0 0 1 2.311 2.196c.55.939.824 2.01.824 3.215 0 1.204-.28 2.276-.841 3.215a5.811 5.811 0 0 1-2.347 2.196c-1.004.525-2.15.788-3.436.788h-5.154V16.842h5.26c1.263 0 2.391.262 3.383.788zm-1.461 8.767a3.374 3.374 0 0 0 1.284-1.355c.307-.578.46-1.24.46-1.983 0-.744-.162-1.412-.487-2.002a3.497 3.497 0 0 0-1.328-1.373c-.561-.324-1.196-.487-1.904-.487H90.11v7.687h2.533c.685 0 1.302-.162 1.85-.487zm6.438-9.555h9.44v2.32h-6.641v2.692h5.968v2.32h-5.968v2.746h6.836v2.32h-9.635V16.842zM120.38 29.24l-1.966-3.542h-2.852v3.542h-2.798V16.842h5.384c1.618 0 2.87.374 3.755 1.124.886.75 1.328 1.81 1.328 3.18 0 .956-.197 1.774-.593 2.453-.395.679-.971 1.195-1.727 1.55l2.64 4.091h-3.171zm-4.818-5.88h2.586c.78 0 1.379-.18 1.798-.54.42-.36.629-.89.629-1.586 0-.685-.21-1.201-.63-1.55-.418-.348-1.018-.522-1.797-.522h-2.586v4.198zm16.162-3.994c-.714-.23-1.325-.346-1.833-.346-.484 0-.868.089-1.151.266a.862.862 0 0 0-.425.78c0 .436.203.77.61 1 .408.23 1.037.47 1.887.717.85.248 1.55.496 2.1.744.548.248 1.018.62 1.407 1.116.39.496.585 1.151.585 1.966 0 .791-.21 1.473-.63 2.046-.418.572-.994 1.006-1.726 1.302-.732.295-1.565.442-2.497.442a8.548 8.548 0 0 1-2.958-.531c-.969-.354-1.807-.838-2.515-1.452l1.115-2.285a7.544 7.544 0 0 0 2.161 1.364c.815.342 1.559.513 2.232.513.579 0 1.03-.106 1.355-.319.325-.212.487-.52.487-.92 0-.32-.11-.582-.328-.789a2.509 2.509 0 0 0-.832-.505c-.337-.13-.8-.277-1.39-.442-.85-.236-1.544-.473-2.082-.709-.537-.236-1-.596-1.39-1.08-.39-.484-.585-1.128-.585-1.93 0-.745.201-1.397.603-1.958.401-.56.962-.992 1.682-1.293.72-.301 1.559-.452 2.515-.452.85 0 1.689.124 2.516.372a8.509 8.509 0 0 1 2.196.992l-1.08 2.32a9.413 9.413 0 0 0-2.029-.93z" fill="#E23943" fill-rule="evenodd"/></svg>